<svg width="128" height="128" viewBox="0 0 128 128" fill="none" xmlns="http://www.w3.org/2000/svg">
  <!-- Background gradient -->
  <defs>
    <linearGradient id="bgGradient" x1="0%" y1="0%" x2="100%" y2="100%">
      <stop offset="0%" style="stop-color:#1e293b;stop-opacity:1" />
      <stop offset="100%" style="stop-color:#0f172a;stop-opacity:1" />
    </linearGradient>
    <linearGradient id="folderGradient" x1="0%" y1="0%" x2="100%" y2="100%">
      <stop offset="0%" style="stop-color:#475569;stop-opacity:1" />
      <stop offset="100%" style="stop-color:#334155;stop-opacity:1" />
    </linearGradient>
    <linearGradient id="reactGradient" x1="0%" y1="0%" x2="100%" y2="100%">
      <stop offset="0%" style="stop-color:#61DAFB;stop-opacity:1" />
      <stop offset="100%" style="stop-color:#00B4D8;stop-opacity:1" />
    </linearGradient>
  </defs>
  
  <!-- Background circle with border -->
  <circle cx="64" cy="64" r="60" fill="url(#bgGradient)"/>
  <circle cx="64" cy="64" r="60" fill="none" stroke="#334155" stroke-width="2"/>
  
  <!-- Folder icon -->
  <path d="M30 45C30 42.2386 32.2386 40 35 40H50L55 45H93C95.7614 45 98 47.2386 98 50V80C98 82.7614 95.7614 85 93 85H35C32.2386 85 30 82.7614 30 80V45Z" fill="url(#folderGradient)" stroke="#64748b" stroke-width="2"/>
  
  <!-- React logo (simplified atom) with glow effect -->
  <g transform="translate(64, 62)">
    <!-- Glow effect -->
    <circle cx="0" cy="0" r="25" fill="url(#reactGradient)" opacity="0.15"/>
    
    <!-- Center dot -->
    <circle cx="0" cy="0" r="4" fill="#61DAFB"/>
    
    <!-- Electron orbits -->
    <ellipse cx="0" cy="0" rx="20" ry="8" fill="none" stroke="#61DAFB" stroke-width="2.5" opacity="0.9"/>
    <ellipse cx="0" cy="0" rx="20" ry="8" fill="none" stroke="#61DAFB" stroke-width="2.5" opacity="0.9" transform="rotate(60)"/>
    <ellipse cx="0" cy="0" rx="20" ry="8" fill="none" stroke="#61DAFB" stroke-width="2.5" opacity="0.9" transform="rotate(120)"/>
  </g>
  
  <!-- Plus sign (create new) with dark background -->
  <g transform="translate(88, 38)">
    <circle cx="0" cy="0" r="12" fill="#10b981" stroke="#1e293b" stroke-width="2.5"/>
    <path d="M-6 0H6M0 -6V6" stroke="#FFFFFF" stroke-width="3" stroke-linecap="round"/>
  </g>
  
  <!-- TypeScript "TS" badge with dark style -->
  <g transform="translate(38, 88)">
    <rect x="-10" y="-8" width="20" height="16" rx="3" fill="#3178C6" stroke="#1e293b" stroke-width="1.5"/>
    <text x="0" y="4" font-family="Arial, sans-serif" font-size="10" font-weight="bold" fill="#FFFFFF" text-anchor="middle">TS</text>
  </g>
</svg>





